# xmcd
#
# Track frame offsets:
#	150
#	19474
#	35991
#	53687
#	68843
#	86215
#	105510
#	120158
#	135716
#	150036
#	163795
#	177889
#	190192
#
# Disc length: 2715 seconds
# Revision: 1
# Processed by: cddbd v1.5.2PL0 Copyright (c) Steve Scherf et al.
# Submitted via: dBpowerAMP V12.0
#
DISCID=a50a990d
DTITLE=Band Of Ruhks - Band Of Ruhks
DYEAR=2015
DGENRE=Country
TTITLE0=All The Way
TTITLE1=Coal Mining Man
TTITLE2=Between the Devil and the Deep
TTITLE3=Bootleg John
TTITLE4=Run With It
TTITLE5=Can't Get Over You
TTITLE6=All We Need
TTITLE7=Good Time Mountain Man
TTITLE8=Rendezvous With Danger
TTITLE9=Lost Highway
TTITLE10=Danny Boy
TTITLE11=Happy All The Time
TTITLE12=Here Comes a Broken Heart Again
EXTD=
EXTT0=
EXTT1=
EXTT2=
EXTT3=
EXTT4=
EXTT5=
EXTT6=
EXTT7=
EXTT8=
EXTT9=
EXTT10=
EXTT11=
EXTT12=
PLAYORDER=
